<svg preserveAspectRatio="none" width="100%" height="100%" overflow="visible" style="display: block;" viewBox="0 0 19 15" fill="none" xmlns="http://www.w3.org/2000/svg">
<path id="Icon (Stroke)" d="M17.1944 7.49989C17.1944 5.30789 16.3836 3.20566 14.9409 1.65544C14.5886 1.27665 14.5889 0.662687 14.9415 0.284034C15.2941 -0.094637 15.8655 -0.0947187 16.2181 0.284034C17.9992 2.19799 19 4.79355 19 7.49989C19 10.2062 17.9992 12.8018 16.2181 14.7157C15.8656 15.0945 15.2941 15.0948 14.9415 14.7163C14.5888 14.3376 14.5885 13.7231 14.9409 13.3443C16.3836 11.7941 17.1944 9.69192 17.1944 7.49989ZM8.07729 0.276998C8.34822 0.0442816 8.71929 -0.00125477 9.03198 0.160098C9.34469 0.321559 9.54374 0.66143 9.54383 1.03414V13.9656C9.54379 14.3384 9.34473 14.6782 9.03198 14.8397C8.71926 15.0011 8.34824 14.9556 8.07729 14.7228L4.0253 11.2407H0.902795C0.404195 11.2407 0 10.8065 0 10.2708V4.72893C3.65577e-05 4.19334 0.404217 3.7591 0.902795 3.7591H4.0253L8.07729 0.276998ZM4.90592 5.48607C4.74589 5.62361 4.54712 5.69873 4.34218 5.69877H1.80559V9.30101H4.34218L4.41876 9.3048C4.59626 9.32107 4.76592 9.39338 4.90592 9.51371L7.73824 11.9475V3.05174L4.90592 5.48607ZM12.9006 7.49556C12.9006 6.52813 12.5428 5.59983 11.9061 4.91565C11.5537 4.53685 11.5536 3.92289 11.9061 3.54424C12.2587 3.16555 12.8307 3.16598 13.1832 3.54478C14.1583 4.59268 14.7062 6.0139 14.7062 7.49556C14.7061 8.97724 14.1584 10.3985 13.1832 11.4463C12.8307 11.8251 12.2587 11.825 11.9061 11.4463C11.5536 11.0677 11.5537 10.4537 11.9061 10.0749C12.5428 9.3908 12.9005 8.46291 12.9006 7.49556Z" fill="var(--fill-0, #999999)"/>
</svg>
